<?xml version="1.0" encoding="UTF-8"?>
<svg id="Layer_1" data-name="Layer 1" xmlns="http://www.w3.org/2000/svg" viewBox="0 0 1191.02 897.95">
  <defs>
    <style>
      .cls-1 {
        fill: none;
      }

      .cls-1, .cls-2 {
        stroke: #006838;
        stroke-miterlimit: 10;
        stroke-width: 35px;
      }

      .cls-2 {
        fill: #006838;
      }
    </style>
  </defs>
  <path class="cls-1" d="m473.98,431.95c-35.95,26.79-64.42,48.39-84.71,62.96-5.45,3.91-16.72,11.66-23.05,26.67-5.26,12.47-5.05,24.16-5.13,29.77-.68,51.99-32.15,83.12-23.36,92.38,8.51,8.96,32.21-26.18,79.49-27.4,6.77-.17,17.47.41,29.51-5.98,13.5-7.16,20.73-18.82,24.39-24.65,13.82-22,33.95-51.97,59.31-89.93"/>
  <path class="cls-2" d="m410.17,563.98c2.75,3.13,2.56,8.03.2,10.78-2.51,2.93-7.31,3.26-10.29,0-2.88-3.16-2.72-8.23-.21-11.03,2.59-2.89,7.4-3.05,10.3.25Z"/>
  <line class="cls-1" x1="410.17" y1="563.98" x2="489.92" y2="476.45"/>
  <path class="cls-1" d="m467.45,426.09c.81,7.39,4.5,27.53,18.53,46.19,16.6,22.07,38.53,29.9,47.47,31.96,39.48,9.08,79.4-35.99,125.15-89.13,92.79-107.76,139.18-161.64,175.5-212.35,81.16-113.31,123.49-172.41,113.33-184.24-2.48-2.89-12.13-7.65-173.05,108.93-36.99,26.8-91.38,71.53-200.16,160.98-61.47,50.55-111.68,92.83-106.77,137.65Z"/>
  <path class="cls-1" d="m9.88,880.47c47.12-2.34,62.73-13.87,66.63-25.84,10.96-33.61-68.65-76.22-58.03-119.78,5.9-24.21,38.48-43.8,62.33-37.58,34.31,8.95,27.19,65.22,79.53,105.69,11.11,8.59,36.76,28.42,66.63,21.14,23.43-5.71,48.44-27.86,46.94-48.26-1.63-22.28-33.59-24.99-77.03-59.78-21.51-17.23-78.46-61.4-70.93-100.99,3.28-17.24,18.65-33.04,34.39-35.23,22.45-3.12,35.87,22.81,70.93,51.67,16.69,13.74,41.81,31.04,77.38,44.63"/>
</svg>